HIERARCHY
ROOT Pelvis
{
	OFFSET 0.000000 0.000000 0.000000
	CHANNELS 6 Xposition Yposition Zposition Xrotation Yrotation Zrotation
	JOINT LeftUpLeg_virtual
	{
		OFFSET 0.000000 0.000000 0.000000
		CHANNELS 3 Xrotation Yrotation Zrotation
		JOINT LeftUpLeg
		{
			OFFSET 18.735201 -5.666702 -4.541200
			CHANNELS 3 Xrotation Yrotation Zrotation
			JOINT LeftLeg
			{
				OFFSET -0.021200 -31.938179 0.493100
				CHANNELS 3 Xrotation Yrotation Zrotation
				JOINT LeftFoot
				{
					OFFSET 0.021200 -31.938179 -4.336299
					CHANNELS 3 Xrotation Yrotation Zrotation
					JOINT LeftToeBase
					{
						OFFSET 0.943001 -26.722000 15.023500
						CHANNELS 3 Xrotation Yrotation Zrotation
						End Site
						{
							OFFSET 0 0 0
						}
					}
				}
			}
		}
	}
	JOINT RightUpLeg_virtual
	{
		OFFSET 0.000000 0.000000 0.000000
		CHANNELS 3 Xrotation Yrotation Zrotation
		JOINT RightUpLeg
		{
			OFFSET -18.735201 -5.666702 -4.541200
			CHANNELS 3 Xrotation Yrotation Zrotation
			JOINT RightLeg
			{
				OFFSET 0.018946 -31.938133 0.493100
				CHANNELS 3 Xrotation Yrotation Zrotation
				JOINT RightFoot
				{
					OFFSET -0.018946 -31.938126 -4.336299
					CHANNELS 3 Xrotation Yrotation Zrotation
					JOINT RightToeBase
					{
						OFFSET -0.943001 -26.722004 15.023500
						CHANNELS 3 Xrotation Yrotation Zrotation
						End Site
						{
							OFFSET 0 0 0
						}
					}
				}
			}
		}
	}
	JOINT Hips_virtual
	{
		OFFSET 0.000000 0.000000 0.000000
		CHANNELS 3 Xrotation Yrotation Zrotation
		JOINT Hips
		{
			OFFSET -0.000000 -0.000000 -0.000000
			CHANNELS 3 Xrotation Yrotation Zrotation
			JOINT Spine
			{
				OFFSET 0.000000 10.199997 -0.299500
				CHANNELS 3 Xrotation Yrotation Zrotation
				JOINT Spine1
				{
					OFFSET 0.000000 11.900002 -1.516600
					CHANNELS 3 Xrotation Yrotation Zrotation
					JOINT Spine2
					{
						OFFSET 0.000000 13.600006 -2.842500
						CHANNELS 3 Xrotation Yrotation Zrotation
						JOINT Neck_virtual
						{
							OFFSET 0.000000 0.000000 0.000000
							CHANNELS 3 Xrotation Yrotation Zrotation
							JOINT Neck
							{
								OFFSET 0.000000 9.624100 -2.890100
								CHANNELS 3 Xrotation Yrotation Zrotation
								JOINT Head
								{
									OFFSET 0.000000 14.068802 -1.351900
									CHANNELS 3 Xrotation Yrotation Zrotation
									End Site
									{
										OFFSET 0 0 0
									}
								}
							}
						}
						JOINT LeftShoulder_virtual
						{
							OFFSET 0.000000 0.000000 0.000000
							CHANNELS 3 Xrotation Yrotation Zrotation
							JOINT LeftShoulder
							{
								OFFSET 15.263000 10.923401 -0.547700
								CHANNELS 3 Xrotation Yrotation Zrotation
								JOINT LeftArm
								{
									OFFSET 25.438599 -2.830597 -13.032500
									CHANNELS 3 Xrotation Yrotation Zrotation
									JOINT LeftForeArm
									{
										OFFSET 29.960503 0.000000 0.000000
										CHANNELS 3 Xrotation Yrotation Zrotation
										JOINT LeftHand
										{
											OFFSET 27.849251 0.000000 0.000000
											CHANNELS 3 Xrotation Yrotation Zrotation
											End Site
											{
												OFFSET 0 0 0
											}
										}
									}
								}
							}
						}
						JOINT RightShoulder_virtual
						{
							OFFSET 0.000000 0.000000 0.000000
							CHANNELS 3 Xrotation Yrotation Zrotation
							JOINT RightShoulder
							{
								OFFSET -15.263000 10.923401 -0.547700
								CHANNELS 3 Xrotation Yrotation Zrotation
								JOINT RightArm
								{
									OFFSET -25.438599 -2.830597 -13.032500
									CHANNELS 3 Xrotation Yrotation Zrotation
									JOINT RightForeArm
									{
										OFFSET -29.960503 0.000000 0.000000
										CHANNELS 3 Xrotation Yrotation Zrotation
										JOINT RightHand
										{
											OFFSET -27.849251 0.000000 0.000000
											CHANNELS 3 Xrotation Yrotation Zrotation
											End Site
											{
												OFFSET 0 0 0
											}
										}
									}
								}
							}
						}
					}
				}
			}
		}
	}
}
MOTION
Frames: 10
Frame Time: 0.03333333
-0.032702 52.677444 -28.386070 0.000000 0.000000 0.000000 51.036273 -8.901669 45.208544 -36.696363 5.369434 -19.464716 66.222830 -4.205664 12.807859 32.220301 -3.234644 -29.200438 0.000000 0.000000 0.000000 51.062429 -8.253750 43.068547 -118.277703 13.142739 -6.676986 135.778983 -2.968535 19.361983 -50.931081 -4.236690 12.364410 0.000000 0.000000 0.000000 50.374387 -9.654326 44.559437 -0.783394 -0.772589 0.278237 25.963280 -6.421118 1.138466 8.974224 0.397235 -0.606368 0.000000 0.000000 0.000000 2.299461 3.269509 -2.303828 1.349286 -2.324390 3.377263 0.000000 0.000000 0.000000 6.855621 4.112921 -2.021840 -1.083106 -16.500620 -2.100065 -38.073438 -1.197545 -30.273113 -49.377200 -51.391211 -48.895890 0.000000 0.000000 0.000000 3.061610 3.511044 -1.207978 -1.295697 19.234448 -8.317388 -66.500375 46.590059 -1.235178 9.392413 43.141763 15.229858 0.000000 0.000000 0.000000 
1.727880 54.365387 -27.674263 0.000000 0.000000 0.000000 49.871825 -12.579889 43.860552 -44.021249 6.353767 -14.203510 73.412929 -4.425041 10.213955 29.587017 -5.647737 -30.650409 0.000000 0.000000 0.000000 50.321784 -11.781038 42.051750 -116.455244 11.959630 -9.011051 134.468024 -2.629061 19.934925 -49.591951 -6.801805 10.619198 0.000000 0.000000 0.000000 49.477139 -12.902894 43.111591 -0.754470 -0.723469 0.266049 27.367593 -6.369197 1.995919 8.459247 0.422191 -0.774202 0.000000 0.000000 0.000000 1.827362 3.314604 -2.417555 1.775436 -2.294722 3.393861 0.000000 0.000000 0.000000 6.131074 4.006138 -2.675429 -0.337845 -17.244066 -1.964877 -35.165007 0.233673 -30.386214 -50.621664 -53.287285 -50.091846 0.000000 0.000000 0.000000 2.976913 3.601779 -1.154776 -0.761500 19.156773 -7.267990 -62.469580 44.758383 -2.816531 8.686002 46.451136 15.846806 0.000000 0.000000 0.000000 
3.538978 56.103043 -26.914268 0.000000 0.000000 0.000000 49.312873 -15.632869 42.568594 -52.742591 7.143786 -7.555045 79.652969 -5.609988 7.617205 27.672803 -8.719951 -33.403750 0.000000 0.000000 0.000000 49.940690 -15.040507 41.139838 -114.326527 10.544764 -10.737335 132.815091 -3.028068 20.486794 -48.393932 -9.993411 8.355848 0.000000 0.000000 0.000000 48.981011 -15.782383 41.769137 -0.713895 -0.694748 0.208898 28.675955 -6.200275 2.479471 7.612307 0.531749 -0.875071 0.000000 0.000000 0.000000 1.583938 3.374031 -2.560330 2.115973 -2.268623 3.388470 0.000000 0.000000 0.000000 5.117227 3.983577 -3.301777 0.450728 -18.153150 -1.824596 -32.376097 1.394035 -30.199336 -52.192269 -55.055744 -51.586042 0.000000 0.000000 0.000000 2.817588 3.709779 -1.147678 -0.396157 18.979192 -6.395888 -58.621198 43.010504 -4.657101 7.420036 50.061291 16.832581 0.000000 0.000000 0.000000 
5.201424 58.091911 -26.220028 0.000000 0.000000 0.000000 49.146934 -17.870505 41.132372 -61.768269 7.040359 -0.930406 83.529928 -6.338831 5.378124 26.977393 -10.589539 -35.188353 0.000000 0.000000 0.000000 49.685012 -17.606302 40.088194 -111.934267 8.904113 -11.855460 130.364460 -4.135721 20.922990 -45.769770 -13.636264 5.683096 0.000000 0.000000 0.000000 48.933521 -17.928804 40.488590 -0.663542 -0.705112 0.137620 29.778583 -6.023153 2.311762 6.583723 0.716903 -0.875036 0.000000 0.000000 0.000000 1.597190 3.429434 -2.716833 2.330632 -2.245948 3.350957 0.000000 0.000000 0.000000 3.932075 4.054187 -3.749072 1.149281 -19.108610 -1.781650 -29.863465 2.290917 -29.682906 -53.452367 -56.402978 -52.758369 0.000000 0.000000 0.000000 2.696121 3.820168 -1.189859 -0.271797 18.620815 -5.715945 -55.130483 41.609721 -6.564921 5.711878 53.421225 18.029584 0.000000 0.000000 0.000000 
6.336047 60.462746 -25.590691 0.000000 0.000000 0.000000 49.170938 -19.522986 39.546713 -70.304025 5.391951 4.035632 85.518886 -5.582962 4.055754 26.648979 -9.595898 -34.138505 0.000000 0.000000 0.000000 49.535387 -19.124251 38.752758 -108.922809 6.900583 -12.250734 126.643264 -5.912501 21.143368 -41.974521 -17.496125 2.515042 0.000000 0.000000 0.000000 49.201561 -19.233285 39.207130 -0.660345 -0.650031 0.112724 30.501808 -5.896265 1.563549 5.642584 0.933787 -0.777034 0.000000 0.000000 0.000000 1.748882 3.464469 -2.848975 2.368785 -2.235877 3.267556 0.000000 0.000000 0.000000 2.669297 4.189925 -3.924400 1.681704 -20.029265 -1.888298 -27.672742 2.775162 -28.797935 -54.069963 -57.297146 -53.307410 0.000000 0.000000 0.000000 2.766729 3.888885 -1.273970 -0.351956 17.969534 -5.342062 -52.106246 40.767586 -8.285830 3.769013 56.238678 19.200761 0.000000 0.000000 0.000000 
7.012562 63.065331 -24.888725 0.000000 0.000000 0.000000 49.382917 -20.735030 37.992999 -77.343095 2.602310 6.650848 86.713527 -3.289034 3.882934 25.612523 -6.130791 -30.623372 0.000000 0.000000 0.000000 49.538751 -19.892431 37.330798 -105.094987 4.892726 -11.596959 122.002820 -8.201103 20.752095 -38.484756 -20.934451 -1.395573 0.000000 0.000000 0.000000 49.512338 -19.803618 37.951553 -0.690264 -0.552496 0.115082 30.838649 -5.885968 0.545609 4.955106 1.115073 -0.577841 0.000000 0.000000 0.000000 1.957047 3.448814 -2.879418 2.212768 -2.236066 3.136842 0.000000 0.000000 0.000000 1.459372 4.321742 -3.819327 2.009857 -20.948636 -2.194775 -25.871650 2.844537 -27.501714 -54.510135 -58.040933 -53.740089 0.000000 0.000000 0.000000 3.004587 3.863890 -1.354737 -0.605907 16.920697 -5.392331 -49.877470 40.579049 -9.427745 1.908708 58.563265 20.005376 0.000000 0.000000 0.000000 
7.290177 65.653999 -23.916706 0.000000 0.000000 0.000000 49.473908 -21.181911 36.467524 -83.159766 -0.405350 7.706948 88.106626 -0.833173 4.507103 23.523667 -2.880376 -26.940214 0.000000 0.000000 0.000000 49.416507 -20.079277 35.966086 -100.557194 3.507079 -10.097943 117.285030 -10.492520 19.404887 -36.153704 -23.179273 -5.714701 0.000000 0.000000 0.000000 49.807584 -19.803439 36.728014 -0.693408 -0.455330 0.102709 30.874870 -6.066744 -0.455049 4.622713 1.160275 -0.336614 0.000000 0.000000 0.000000 2.160804 3.358752 -2.800355 1.878000 -2.248812 2.971743 0.000000 0.000000 0.000000 0.523075 4.353457 -3.500399 2.170011 -21.894786 -2.668672 -24.429421 2.475224 -25.750949 -55.413762 -58.953104 -54.742638 0.000000 0.000000 0.000000 3.358343 3.722355 -1.448757 -0.891978 15.546489 -6.095869 -48.755598 41.095141 -9.554326 0.511423 60.493831 19.994265 0.000000 0.000000 0.000000 
7.165002 67.962143 -22.713642 0.000000 0.000000 0.000000 49.328757 -20.891737 35.119364 -88.713318 -2.971246 8.789340 90.166133 0.855416 5.099195 20.959743 -1.493551 -24.796633 0.000000 0.000000 0.000000 49.186125 -19.714209 34.854203 -95.741596 3.266857 -8.504491 113.096540 -12.170998 16.991108 -35.151258 -23.588021 -9.635850 0.000000 0.000000 0.000000 50.044905 -19.434642 35.714550 -0.749485 -0.367635 0.072291 30.598431 -6.470343 -1.321073 4.698923 1.041876 -0.128553 0.000000 0.000000 0.000000 2.375757 3.188449 -2.646060 1.426568 -2.268538 2.783517 0.000000 0.000000 0.000000 -0.011370 4.258106 -3.086411 2.224402 -22.821988 -3.259598 -23.415029 1.647089 -23.522384 -56.686277 -59.943325 -56.174324 0.000000 0.000000 0.000000 3.733501 3.465556 -1.558274 -1.047969 13.973975 -7.475001 -48.998510 42.155275 -8.385551 -0.019827 62.137762 18.774983 0.000000 0.000000 0.000000 
6.712457 69.979141 -21.327145 0.000000 0.000000 0.000000 48.941509 -20.280640 34.173533 -94.337924 -4.690126 11.041309 92.258767 1.414053 4.928084 19.646481 -2.045830 -24.970321 0.000000 0.000000 0.000000 49.035506 -19.262325 34.259290 -91.473718 4.314365 -7.458096 109.483841 -12.783178 13.675286 -34.435608 -21.908983 -11.779702 0.000000 0.000000 0.000000 50.050906 -18.875511 35.107794 -0.792753 -0.344122 0.002430 30.026990 -7.071640 -2.174743 5.106271 0.809751 -0.026010 0.000000 0.000000 0.000000 2.710778 2.949730 -2.460685 0.938504 -2.274584 2.580478 0.000000 0.000000 0.000000 -0.102791 4.071547 -2.648866 2.236928 -23.654140 -3.835964 -22.969433 0.389799 -20.838265 -57.712312 -60.750557 -57.359956 0.000000 0.000000 0.000000 3.906849 3.136999 -1.694250 -0.986387 12.473385 -9.336179 -50.651365 43.376838 -5.904395 0.645690 63.505186 16.000029 0.000000 0.000000 0.000000 
5.821075 71.871246 -19.650604 0.000000 0.000000 0.000000 48.398946 -19.427169 33.840814 -99.106892 -5.490181 14.335836 92.197329 0.972132 4.241584 19.980373 -3.788207 -27.206822 0.000000 0.000000 0.000000 48.790428 -18.734061 34.215717 -87.645158 6.407117 -7.019663 105.577711 -12.479054 9.605602 -32.412751 -18.482485 -11.100598 0.000000 0.000000 0.000000 49.882808 -18.219147 34.989164 -0.819226 -0.332261 -0.076704 29.237673 -7.759606 -3.163687 5.737394 0.552614 -0.100645 0.000000 0.000000 0.000000 3.185619 2.689461 -2.331249 0.450102 -2.251643 2.357365 0.000000 0.000000 0.000000 0.190671 3.851328 -2.227261 2.272928 -24.292526 -4.233428 -23.058980 -1.377730 -17.880568 -57.660491 -61.071494 -57.423272 0.000000 0.000000 0.000000 3.832487 2.794577 -1.884345 -0.669811 11.306223 -11.372250 -53.371460 44.325807 -2.516028 2.599560 64.581904 11.651427 0.000000 0.000000 0.000000 
